<?xml version="1.0" encoding="utf-8"?>
<!-- Generator: Adobe Illustrator 14.0.0, SVG Export Plug-In . SVG Version: 6.00 Build 43363)  -->
<!DOCTYPE svg PUBLIC "-//W3C//DTD SVG 1.1//EN" "http://www.w3.org/Graphics/SVG/1.1/DTD/svg11.dtd">
<svg version="1.1" xmlns="http://www.w3.org/2000/svg" xmlns:xlink="http://www.w3.org/1999/xlink" x="0px" y="0px" width="2272px"
	 height="1872px" viewBox="0 0 2272 1872" enable-background="new 0 0 2272 1872" xml:space="preserve">
<g id="bg">
	<rect fill="#EEDFAC" width="2272" height="1872"/>
</g>
<g id="Geometric_Birds">
	<g>
		<path fill="#FDEE21" d="M1383.811,447.287h146.511v-48.344h-98.167C1405.455,398.943,1383.811,420.588,1383.811,447.287
			L1383.811,447.287z"/>
		<path fill="#F8931F" d="M1433.142,447.287h97.18v48.343h-48.837C1454.785,495.63,1433.142,473.986,1433.142,447.287
			L1433.142,447.287z"/>
		<path fill="#D3761A" d="M1582.611,744.747h-65.609l0,0c0-13.622,11.043-24.665,24.666-24.665h40.943V744.747z"/>
		<rect x="1383.811" y="744.747" fill="#7C2E22" width="505.141" height="19.239"/>
		<path fill="#F8931F" d="M1607.77,754.12h-65.609l0,0c0-13.622,11.043-24.665,24.666-24.665h40.943V754.12z"/>
		<path d="M1664.007,854.26L1664.007,854.26c-41.14,0-74.489-33.35-74.489-74.488V654.474h74.489V854.26z"/>
		<path d="M1694.591,832.555L1694.591,832.555c-41.139,0-74.488-33.35-74.488-74.488V632.768l0,0
			c41.139,0,74.488,33.35,74.488,74.488V832.555z"/>
		<path d="M1664.007,755.6L1664.007,755.6c-87.455,0-158.351-70.895-158.351-158.349V398.943h31.597
			c70.004,0,126.754,56.75,126.754,126.753V755.6z"/>
		<path fill="#E6E5EB" d="M1505.656,555.813L1505.656,555.813v-156.87h76.955v79.915
			C1582.611,521.359,1548.158,555.813,1505.656,555.813z"/>
		<circle cx="1544.38" cy="437.174" r="14.059"/>
		<path fill="#7E7E7E" d="M1641.314,726.002L1641.314,726.002v-103.1c0-39.504-32.024-71.528-71.528-71.528l0,0v103.1
			C1569.786,693.978,1601.811,726.002,1641.314,726.002z"/>
	</g>
	<g>
		<g>
			<g>
				<path fill="#F8DAD8" d="M621.781,716.553c1.935,0,1.935-3,0-3S619.846,716.553,621.781,716.553L621.781,716.553z"/>
			</g>
		</g>
		<g>
			<g>
				<path fill="#C5B9BB" d="M648.793,650.569l-61.055,29.683c-44.827,21.793-99.363,8.39-121.81-29.937l0,0
					c-25.625-43.753-4.914-99.391,46.26-124.27l223.387-108.603h0C783.647,499.522,744.794,603.896,648.793,650.569z"/>
				<path fill="#6D6D6D" d="M711.391,429.199c29.442,77.666-10.6,167.687-97.813,210.086l-61.054,29.683
					c-18.972,9.223-39.683,12.14-58.964,9.534c26.499,15.386,62.321,17.237,93.461,2.098l61.055-29.683
					c96.001-46.672,134.854-151.047,86.782-233.127l0,0L711.391,429.199z"/>
			</g>
			<circle fill="#000100" cx="579.143" cy="633.594" r="148.376"/>
			<circle fill="#EEA59E" cx="394.476" cy="405.891" r="45.284"/>
			<rect x="394.796" y="406.212" fill="#EEA59E" width="35.97" height="227.381"/>
			<polygon fill="#EEA59E" points="370.934,426.255 308.281,426.923 308.281,426.923 354.4,398.973 			"/>
			<circle fill="#000100" cx="379.702" cy="398.826" r="10.598"/>
			<path fill="#000100" d="M495.641,699.11h-35.328c-36.184,0-65.517-29.333-65.517-65.517l0,0h100.845V699.11z"/>
			<g>
				<rect x="586.854" y="628.288" width="4.34" height="340.631"/>
			</g>
			<g>
				<rect x="532.976" y="626.48" width="4.34" height="340.63"/>
			</g>
			<g>
				<path fill="#C5B9BB" d="M626.972,718.327H558.38c-50.362,0-91.188-35.53-91.188-79.358l0,0
					c0-50.034,46.606-90.595,104.099-90.595h250.967l0,0C822.258,642.237,734.826,718.327,626.972,718.327z"/>
				<path fill="#6D6D6D" d="M795.089,548.374c-14.031,81.871-95.151,144.671-193.133,144.671h-68.592
					c-21.314,0-40.919-6.365-56.446-17.029c15.292,25.163,45.67,42.312,80.655,42.312h68.593
					c107.854,0,195.286-76.09,195.286-169.953l0,0H795.089z"/>
			</g>
		</g>
	</g>
	<g>
		<path fill="#3C9EBC" d="M1788.38,1217.894l-66.903,45.987c-49.184,33.808-113.789,25.229-144.303-19.161l0,0l0,0l66.903-45.988
			C1693.261,1164.924,1757.867,1173.503,1788.38,1217.894L1788.38,1217.894z"/>
		<g>
			<rect x="1632.444" y="1299.791" width="3.999" height="118.216"/>
		</g>
		<g>
			<rect x="1594.61" y="1299.791" width="4" height="118.216"/>
		</g>
		<path fill="#FAB13E" d="M1509.869,1197.058h-26.484c-12.955,0-23.457,10.501-23.457,23.457l0,0h49.941V1197.058z"/>
		<path fill="#FAB13E" d="M1509.869,1243.215h-17.404c-12.955,0-23.457-10.502-23.457-23.457l0,0h40.861V1243.215z"/>
		<circle fill="#F69994" cx="1594.616" cy="1240.188" r="98.368"/>
		<path fill="#F69994" d="M1784.639,1348.992l-120.356,15.619c-81.642,10.596-156.415-47-167.01-128.642l-0.669-5.154
			l120.355-15.619c81.643-10.596,156.416,46.999,167.011,128.642L1784.639,1348.992z"/>
		<path fill="#55C4F2" d="M1770.219,1254.214l-66.902,45.988c-49.184,33.807-113.789,25.228-144.303-19.162l0,0l0,0l66.903-45.988
			C1675.101,1201.245,1739.707,1209.823,1770.219,1254.214L1770.219,1254.214z"/>
		<circle cx="1553" cy="1184.95" r="18.161"/>
	</g>
	<g>
		<polygon fill="#FAB13E" points="466.41,1112.31 405.875,1112.31 466.41,1079.772 466.41,1079.772 		"/>
		<polygon fill="#FAB13E" points="466.41,1112.31 405.875,1112.31 466.41,1144.847 466.41,1144.847 		"/>
		<path fill="#DFEFF4" d="M717.984,1385.509L670.17,1228.8l0,0c35.364-10.79,72.779,9.131,83.569,44.496l47.814,156.707l0,0
			C766.189,1440.793,728.774,1420.872,717.984,1385.509z"/>
		<g>
			<rect x="634.385" y="1302.062" width="4" height="140.916"/>
		</g>
		<g>
			<rect x="573.851" y="1302.062" width="4" height="140.916"/>
		</g>
		<circle fill="#55C4F2" cx="528.835" cy="1115.714" r="76.803"/>
		<path fill="#55C4F2" d="M784.971,1370.337h-90.423c-133.938,0-242.515-108.578-242.515-242.516v-12.485h77.938
			C670.804,1115.336,784.971,1229.503,784.971,1370.337L784.971,1370.337z"/>
		<path fill="#DFEFF4" d="M581.425,1234.891L581.425,1234.891c0,24.657,19.987,44.645,44.644,44.645H768.31
			c-19.938-52.302-56.588-96.345-103.432-125.608h-2.489C617.673,1153.927,581.425,1190.175,581.425,1234.891z"/>
		<circle fill="#000100" cx="507.27" cy="1093.393" r="13.62"/>
	</g>
	<g>
		<g>
			<g>
				<polygon points="1148.494,893.19 1003.736,837.046 1106.785,642.484 1110.319,644.356 1009.376,834.943 1149.941,889.461 				
					"/>
			</g>
			<g>
				<rect x="1106.553" y="662.667" width="4" height="313.989"/>
			</g>
			<g>
				<path fill="#F8DAD8" d="M1038.502,397.529l-86.079,26.264l0,0c-5.05-16.551,4.273-34.062,20.824-39.112l56.111-17.121
					L1038.502,397.529z"/>
				<path d="M973.247,384.682c-16.551,5.05-25.874,22.561-20.824,39.112l0,0l35.069-10.7l-9.145-29.968L973.247,384.682z"/>
			</g>
			<circle fill="#ED7871" cx="1065.887" cy="376.011" r="61.998"/>
			<path fill="#EC7770" d="M1296.107,534.894L1296.107,534.894l-171.28,9.427c-53.305,2.934-94.138,48.525-91.204,101.83l0,0
				l171.281-9.428C1258.208,633.789,1299.042,588.198,1296.107,534.894z"/>
			<circle cx="1046.888" cy="367.678" r="13.667"/>
			<circle fill="#EEA59E" cx="1111.552" cy="654.334" r="112.329"/>
			<circle fill="#ED7871" cx="1077.554" cy="654.334" r="112.329"/>
			<polygon fill="#ED7871" points="1127.885,376.011 1029.223,646.001 965.225,646.001 1073.887,376.011 			"/>
			<path fill="#F8DAD8" d="M1313.225,617.447L1313.225,617.447l-145.819-36.578c-58.74-14.734-118.303,20.939-133.037,79.679v0
				l145.819,36.577C1238.928,711.86,1298.49,676.187,1313.225,617.447z"/>
			<path fill="#EEA59E" d="M1304.733,652.238L1304.733,652.238l-184.52-46.285c-37.366-9.373-75.256,13.32-84.629,50.687l0,0
				c-7.494,29.876,10.649,60.171,40.526,67.666l76.326,19.146C1219.682,760.319,1287.866,719.481,1304.733,652.238z"/>
		</g>
		<path fill="#EC7770" d="M1296.107,534.894L1296.107,534.894l-171.28,9.427c-53.305,2.934-94.138,48.525-91.204,101.83l0,0
			l171.281-9.428C1258.208,633.789,1299.042,588.198,1296.107,534.894z"/>
	</g>
	<g>
		<g>
			<path fill="#6A9965" d="M1328.385,1420.565l20.271-10.406l-110.066-158.682c-27.439-39.561-86.962-52.494-132.946-28.887
				l-20.271,10.406l110.065,158.683C1222.879,1431.24,1282.4,1444.173,1328.385,1420.565z"/>
			<path fill="#D6D27F" d="M1263.385,1327.305l-77.943-112.371c-25.703-7.215-54.758-5.198-79.799,7.657l-20.271,10.406
				l70.109,101.076C1189.454,1346.147,1229.393,1344.755,1263.385,1327.305L1263.385,1327.305z"/>
		</g>
		<polygon fill="#BF7F2C" points="931.767,1069.936 867.449,1069.936 931.767,1054.045 931.767,1054.045 		"/>
		<polygon fill="#BF7F2C" points="931.767,1069.936 867.449,1069.936 931.767,1085.825 931.767,1085.825 		"/>
		<circle fill="#6A9965" cx="982.615" cy="1072.828" r="63.427"/>
		<path fill="#6A9965" d="M1222.896,1321.909h-64.364c-116.306,0-210.591-94.285-210.591-210.59v-38.804h64.365
			c116.306,0,210.59,94.284,210.59,210.59V1321.909z"/>
		<circle fill="#000100" cx="968.589" cy="1047.584" r="11.248"/>
		<g>
			<path fill="#6A9965" d="M1268.727,1040.074l-4.633-19.772l-179.916,42.149c-44.854,10.509-72.698,55.389-62.189,100.243
				l4.632,19.773l179.916-42.149C1251.392,1129.81,1279.234,1084.929,1268.727,1040.074z"/>
			<path fill="#D6D27F" d="M1162.903,1065.103l-127.407,29.848c-13.577,18.887-19.23,43.318-13.508,67.744l4.632,19.773
				l114.603-26.849C1161.586,1131.426,1170.672,1098.259,1162.903,1065.103L1162.903,1065.103z"/>
		</g>
	</g>
</g>
</svg>
